<svg width="17" height="17" viewBox="0 0 17 17" fill="none" xmlns="http://www.w3.org/2000/svg">
<path d="M14.1872 7.11657L9.18715 12.1166C9.14072 12.1631 9.08557 12.1999 9.02487 12.2251C8.96417 12.2503 8.89911 12.2632 8.8334 12.2632C8.76769 12.2632 8.70263 12.2503 8.64193 12.2251C8.58123 12.1999 8.52609 12.1631 8.47965 12.1166L3.47965 7.11657C3.40965 7.04664 3.36196 6.95751 3.34264 6.86047C3.32331 6.76343 3.33321 6.66283 3.37109 6.57142C3.40897 6.48001 3.47311 6.40189 3.55541 6.34696C3.63771 6.29202 3.73445 6.26274 3.8334 6.26282L13.8334 6.26282C13.9323 6.26274 14.0291 6.29202 14.1114 6.34696C14.1937 6.40189 14.2578 6.48001 14.2957 6.57142C14.3336 6.66283 14.3435 6.76343 14.3242 6.86047C14.3048 6.95751 14.2572 7.04664 14.1872 7.11657Z" fill="#9095A1"/>
</svg>
