<svg width="13" height="13" viewBox="0 0 13 13" fill="none" xmlns="http://www.w3.org/2000/svg">
<path d="M10.3489 5.02813L6.59886 8.77813C6.56403 8.813 6.52267 8.84066 6.47715 8.85953C6.43163 8.8784 6.38283 8.88811 6.33355 8.88811C6.28427 8.88811 6.23547 8.8784 6.18995 8.85953C6.14442 8.84066 6.10306 8.813 6.06823 8.77813L2.31823 5.02813C2.26573 4.97568 2.22997 4.90884 2.21547 4.83606C2.20098 4.76328 2.20841 4.68783 2.23681 4.61927C2.26522 4.55071 2.31333 4.49212 2.37505 4.45092C2.43678 4.40972 2.50934 4.38776 2.58355 4.38782L10.0835 4.38782C10.1578 4.38776 10.2303 4.40972 10.292 4.45092C10.3538 4.49212 10.4019 4.55071 10.4303 4.61927C10.4587 4.68783 10.4661 4.76328 10.4516 4.83606C10.4371 4.90884 10.4014 4.97568 10.3489 5.02813Z" fill="#9095A1"/>
</svg>
