<svg width="18" height="18" viewBox="0 0 18 18" fill="none" xmlns="http://www.w3.org/2000/svg">
<path d="M14.5217 7.01356L9.20922 12.3261C9.15989 12.3754 9.1013 12.4146 9.0368 12.4414C8.97231 12.4681 8.90318 12.4819 8.83337 12.4819C8.76355 12.4819 8.69442 12.4681 8.62993 12.4414C8.56544 12.4146 8.50684 12.3754 8.45751 12.3261L3.14501 7.01356C3.07062 6.93926 3.01996 6.84456 2.99943 6.74145C2.97889 6.63834 2.98942 6.53146 3.02966 6.43434C3.0699 6.33721 3.13806 6.25421 3.2255 6.19584C3.31294 6.13748 3.41573 6.10636 3.52087 6.10645L14.1459 6.10645C14.251 6.10636 14.3538 6.13748 14.4412 6.19584C14.5287 6.25421 14.5968 6.33721 14.6371 6.43434C14.6773 6.53146 14.6878 6.63834 14.6673 6.74145C14.6468 6.84456 14.5961 6.93926 14.5217 7.01356Z" fill="#9095A1"/>
</svg>
