<svg width="17" height="17" viewBox="0 0 17 17" fill="none" xmlns="http://www.w3.org/2000/svg">
<path d="M13.6872 7.11657L8.68715 12.1166C8.64072 12.1631 8.58557 12.1999 8.52487 12.2251C8.46417 12.2503 8.39911 12.2632 8.3334 12.2632C8.26769 12.2632 8.20263 12.2503 8.14193 12.2251C8.08123 12.1999 8.02609 12.1631 7.97965 12.1166L2.97965 7.11657C2.90965 7.04664 2.86196 6.95751 2.84264 6.86047C2.82331 6.76343 2.83321 6.66283 2.87109 6.57142C2.90897 6.48001 2.97311 6.40189 3.05541 6.34696C3.13771 6.29202 3.23445 6.26274 3.3334 6.26282L13.3334 6.26282C13.4323 6.26274 13.5291 6.29202 13.6114 6.34696C13.6937 6.40189 13.7578 6.48001 13.7957 6.57142C13.8336 6.66283 13.8435 6.76343 13.8242 6.86047C13.8048 6.95751 13.7572 7.04664 13.6872 7.11657Z" fill="#9095A1"/>
</svg>
