<svg width="16" height="16" viewBox="0 0 16 16" fill="none" xmlns="http://www.w3.org/2000/svg">
<path d="M12.8525 6.71934L8.16502 11.4068C8.12148 11.4504 8.06979 11.485 8.01288 11.5086C7.95597 11.5322 7.89498 11.5443 7.83338 11.5443C7.77178 11.5443 7.71078 11.5322 7.65387 11.5086C7.59697 11.485 7.54527 11.4504 7.50174 11.4068L2.81424 6.71934C2.74861 6.65378 2.7039 6.57022 2.68579 6.47925C2.66767 6.38827 2.67695 6.29396 2.71246 6.20826C2.74797 6.12256 2.80811 6.04933 2.88526 5.99783C2.96241 5.94632 3.05311 5.91887 3.14588 5.91895L12.5209 5.91895C12.6136 5.91887 12.7043 5.94632 12.7815 5.99783C12.8586 6.04933 12.9188 6.12256 12.9543 6.20826C12.9898 6.29396 12.9991 6.38827 12.981 6.47925C12.9629 6.57022 12.9181 6.65378 12.8525 6.71934Z" fill="#9095A1"/>
</svg>
