<svg width="16" height="16" viewBox="0 0 16 16" fill="none" xmlns="http://www.w3.org/2000/svg">
<g clip-path="url(#clip0_1_7910)">
<path d="M9.92324 2.96875C9.63846 2.66797 9.17672 2.66797 8.89194 2.96875C8.60715 3.26953 8.60715 3.75719 8.89194 4.05797L11.6957 7.01921H1.48608C1.08333 7.01921 0.756836 7.36403 0.756836 7.7894C0.756836 8.21477 1.08333 8.5596 1.48608 8.5596H11.8435L8.89194 11.6769C8.60715 11.9777 8.60715 12.4653 8.89194 12.7661C9.17672 13.0669 9.63846 13.0669 9.92324 12.7661L14.0458 8.41203C14.3306 8.11125 14.3306 7.62359 14.0458 7.32281L13.9769 7.25001C13.9736 7.24651 13.9703 7.24305 13.967 7.23962L9.92324 2.96875Z" fill="white"/>
</g>
<defs>
<clipPath id="clip0_1_7910">
<rect width="16" height="16" fill="white"/>
</clipPath>
</defs>
</svg>
