<svg width="21" height="21" viewBox="0 0 21 21" fill="none" xmlns="http://www.w3.org/2000/svg">
<g clip-path="url(#clip0_1_5349)">
<path d="M15.7439 6.67441C16.4067 6.67441 16.9439 6.13715 16.9439 5.47441C16.9439 4.81167 16.4067 4.27441 15.7439 4.27441C15.0812 4.27441 14.5439 4.81167 14.5439 5.47441C14.5439 6.13715 15.0812 6.67441 15.7439 6.67441Z" fill="#74767E"/>
<path d="M10.5625 15.6094C7.805 15.6094 5.5625 13.3669 5.5625 10.6094C5.5625 7.85188 7.805 5.60938 10.5625 5.60938C13.32 5.60938 15.5625 7.85188 15.5625 10.6094C15.5625 13.3669 13.32 15.6094 10.5625 15.6094ZM10.5625 8.10938C9.18375 8.10938 8.0625 9.23063 8.0625 10.6094C8.0625 11.9881 9.18375 13.1094 10.5625 13.1094C11.9412 13.1094 13.0625 11.9881 13.0625 10.6094C13.0625 9.23063 11.9412 8.10938 10.5625 8.10938Z" fill="#74767E"/>
<path d="M15.5625 20.6094H5.5625C2.9925 20.6094 0.5625 18.1794 0.5625 15.6094V5.60938C0.5625 3.03938 2.9925 0.609375 5.5625 0.609375H15.5625C18.1325 0.609375 20.5625 3.03938 20.5625 5.60938V15.6094C20.5625 18.1794 18.1325 20.6094 15.5625 20.6094ZM5.5625 3.10938C4.39375 3.10938 3.0625 4.44062 3.0625 5.60938V15.6094C3.0625 16.8006 4.37125 18.1094 5.5625 18.1094H15.5625C16.7313 18.1094 18.0625 16.7782 18.0625 15.6094V5.60938C18.0625 4.44062 16.7313 3.10938 15.5625 3.10938H5.5625Z" fill="#74767E"/>
</g>
<defs>
<clipPath id="clip0_1_5349">
<rect width="20" height="20" fill="white" transform="translate(0.5625 0.609375)"/>
</clipPath>
</defs>
</svg>
