<svg width="17" height="17" viewBox="0 0 17 17" fill="none" xmlns="http://www.w3.org/2000/svg">
<g clip-path="url(#clip0_1_8257)">
<path d="M2.5 10.3906C3.60457 10.3906 4.5 9.49519 4.5 8.39062C4.5 7.28606 3.60457 6.39062 2.5 6.39062C1.39543 6.39062 0.5 7.28606 0.5 8.39062C0.5 9.49519 1.39543 10.3906 2.5 10.3906Z" fill="#404145"/>
<path d="M8.5 10.3906C9.60457 10.3906 10.5 9.49519 10.5 8.39062C10.5 7.28606 9.60457 6.39062 8.5 6.39062C7.39543 6.39062 6.5 7.28606 6.5 8.39062C6.5 9.49519 7.39543 10.3906 8.5 10.3906Z" fill="#404145"/>
<path d="M14.5 10.3906C15.6046 10.3906 16.5 9.49519 16.5 8.39062C16.5 7.28606 15.6046 6.39062 14.5 6.39062C13.3954 6.39062 12.5 7.28606 12.5 8.39062C12.5 9.49519 13.3954 10.3906 14.5 10.3906Z" fill="#404145"/>
</g>
<defs>
<clipPath id="clip0_1_8257">
<rect width="16" height="16" fill="white" transform="translate(0.5 0.390625)"/>
</clipPath>
</defs>
</svg>
