<svg width="17" height="16" viewBox="0 0 17 16" fill="none" xmlns="http://www.w3.org/2000/svg">
<g clip-path="url(#clip0_1_4775)">
<path d="M8.95312 0C4.55312 0 0.953125 3.6 0.953125 8C0.953125 12.4 4.55312 16 8.95312 16C13.3531 16 16.9531 12.4 16.9531 8C16.9531 3.6 13.3531 0 8.95312 0ZM8.95312 14C5.65312 14 2.95312 11.3 2.95312 8C2.95312 4.7 5.65312 2 8.95312 2C12.2531 2 14.9531 4.7 14.9531 8C14.9531 11.3 12.2531 14 8.95312 14Z" fill="#62646A"/>
<path d="M9.95312 4H7.95312V9H12.9531V7H9.95312V4Z" fill="#62646A"/>
</g>
<defs>
<clipPath id="clip0_1_4775">
<rect width="16" height="16" fill="white" transform="translate(0.953125)"/>
</clipPath>
</defs>
</svg>
