<svg width="17" height="16" viewBox="0 0 17 16" fill="none" xmlns="http://www.w3.org/2000/svg">
<g clip-path="url(#clip0_1_4781)">
<path d="M5.31245 11.5C7.21245 13.4 10.4124 13.4 12.3124 11.5C13.0124 10.8 13.5124 9.79995 13.7124 8.79995L15.7124 9.09995C15.5124 10.6 14.8124 11.9 13.8124 12.9C11.1124 15.6 6.71245 15.6 3.91245 12.9L1.71245 15.1L1.01245 8.69995L7.41245 9.39995L5.31245 11.5Z" fill="#62646A"/>
<path d="M16.6126 7.2999L10.2126 6.5999L12.3126 4.4999C10.4126 2.5999 7.2126 2.5999 5.3126 4.4999C4.6126 5.1999 4.1126 6.1999 3.9126 7.1999L1.9126 6.8999C2.1126 5.3999 2.8126 4.0999 3.8126 3.0999C5.2126 1.6999 6.9126 1.0999 8.7126 1.0999C10.5126 1.0999 12.3126 1.7999 13.6126 3.0999L15.8126 0.899902L16.6126 7.2999Z" fill="#62646A"/>
</g>
<defs>
<clipPath id="clip0_1_4781">
<rect width="16" height="16" fill="white" transform="translate(0.8125)"/>
</clipPath>
</defs>
</svg>
