<svg width="17" height="17" viewBox="0 0 17 17" fill="none" xmlns="http://www.w3.org/2000/svg">
<g clip-path="url(#clip0_1_4854)">
<path d="M15.3269 2H1.17308C0.663276 2 0.25 2.41574 0.25 2.92857C0.25 3.44141 0.663276 3.85714 1.17308 3.85714H15.3269C15.8367 3.85714 16.25 3.44141 16.25 2.92857C16.25 2.41574 15.8367 2 15.3269 2Z" fill="#B5B6BA"/>
<path d="M15.3269 7.57153H1.17308C0.663276 7.57153 0.25 7.98727 0.25 8.5001C0.25 9.01294 0.663276 9.42867 1.17308 9.42867H15.3269C15.8367 9.42867 16.25 9.01294 16.25 8.5001C16.25 7.98727 15.8367 7.57153 15.3269 7.57153Z" fill="#B5B6BA"/>
<path d="M15.3269 13.1428H1.17308C0.663276 13.1428 0.25 13.5585 0.25 14.0713C0.25 14.5842 0.663276 14.9999 1.17308 14.9999H15.3269C15.8367 14.9999 16.25 14.5842 16.25 14.0713C16.25 13.5585 15.8367 13.1428 15.3269 13.1428Z" fill="#B5B6BA"/>
</g>
<defs>
<clipPath id="clip0_1_4854">
<rect width="16" height="16" fill="white" transform="translate(0.25 0.5)"/>
</clipPath>
</defs>
</svg>
