<svg width="59" height="91" viewBox="0 0 59 91" fill="none" xmlns="http://www.w3.org/2000/svg">
<g filter="url(#filter0_d_1_5255)">
<rect x="5.5" y="35.0312" width="48" height="48" rx="24" fill="white" shape-rendering="crispEdges"/>
<g clip-path="url(#clip0_1_5255)">
<path d="M33.788 4.91925L31.9 3.03125L23.9 11.0312L31.9 19.0312L33.788 17.1432L27.676 11.0312L33.788 4.91925Z" fill="black"/>
<path d="M25.212 65.1433L27.1 67.0312L35.1 59.0312L27.1 51.0312L25.212 52.9192L31.324 59.0312L25.212 65.1433ZM33.788 36.9193L31.9 35.0312L23.9 43.0312L31.9 51.0312L33.788 49.1433L27.676 43.0312L33.788 36.9193Z" fill="#555555"/>
<path d="M25.212 33.1432L27.1 35.0312L35.1 27.0312L27.1 19.0312L25.212 20.9193L31.324 27.0312L25.212 33.1432Z" fill="black"/>
</g>
</g>
<defs>
<filter id="filter0_d_1_5255" x="0.5" y="0.03125" width="58" height="90" filterUnits="userSpaceOnUse" color-interpolation-filters="sRGB">
<feFlood flood-opacity="0" result="BackgroundImageFix"/>
<feColorMatrix in="SourceAlpha" type="matrix" values="0 0 0 0 0 0 0 0 0 0 0 0 0 0 0 0 0 0 127 0" result="hardAlpha"/>
<feOffset dy="2"/>
<feGaussianBlur stdDeviation="2.5"/>
<feComposite in2="hardAlpha" operator="out"/>
<feColorMatrix type="matrix" values="0 0 0 0 0 0 0 0 0 0 0 0 0 0 0 0 0 0 0.15 0"/>
<feBlend mode="normal" in2="BackgroundImageFix" result="effect1_dropShadow_1_5255"/>
<feBlend mode="normal" in="SourceGraphic" in2="effect1_dropShadow_1_5255" result="shape"/>
</filter>
<clipPath id="clip0_1_5255">
<rect width="16" height="64" fill="white" transform="translate(21.5 3.03125)"/>
</clipPath>
</defs>
</svg>
