<svg width="17" height="16" viewBox="0 0 17 16" fill="none" xmlns="http://www.w3.org/2000/svg">
<g clip-path="url(#clip0_1_7869)">
<path d="M8.65625 0.25C4.37634 0.25 0.90625 3.72134 0.90625 8C0.90625 12.2812 4.37634 15.75 8.65625 15.75C12.9361 15.75 16.4062 12.2812 16.4062 8C16.4062 3.72134 12.9361 0.25 8.65625 0.25ZM8.65625 3.6875C9.38112 3.6875 9.96875 4.27513 9.96875 5C9.96875 5.72487 9.38112 6.3125 8.65625 6.3125C7.93138 6.3125 7.34375 5.72487 7.34375 5C7.34375 4.27513 7.93138 3.6875 8.65625 3.6875ZM10.4062 11.625C10.4062 11.8321 10.2383 12 10.0312 12H7.28125C7.07416 12 6.90625 11.8321 6.90625 11.625V10.875C6.90625 10.6679 7.07416 10.5 7.28125 10.5H7.65625V8.5H7.28125C7.07416 8.5 6.90625 8.33209 6.90625 8.125V7.375C6.90625 7.16791 7.07416 7 7.28125 7H9.28125C9.48834 7 9.65625 7.16791 9.65625 7.375V10.5H10.0312C10.2383 10.5 10.4062 10.6679 10.4062 10.875V11.625Z" fill="#284389"/>
</g>
<defs>
<clipPath id="clip0_1_7869">
<rect width="16" height="16" fill="white" transform="translate(0.65625)"/>
</clipPath>
</defs>
</svg>
