<svg width="17" height="17" viewBox="0 0 17 17" fill="none" xmlns="http://www.w3.org/2000/svg">
<g clip-path="url(#clip0_1_8208)">
<path fill-rule="evenodd" clip-rule="evenodd" d="M8.375 16.8906C10.4967 16.8906 12.5316 16.0478 14.0319 14.5475C15.5321 13.0472 16.375 11.0124 16.375 8.89062C16.375 6.76889 15.5321 4.73406 14.0319 3.23377C12.5316 1.73348 10.4967 0.890625 8.375 0.890625C6.25327 0.890625 4.21844 1.73348 2.71815 3.23377C1.21785 4.73406 0.375 6.76889 0.375 8.89062C0.375 11.0124 1.21785 13.0472 2.71815 14.5475C4.21844 16.0478 6.25327 16.8906 8.375 16.8906ZM7.042 7.11263C7.042 6.88462 7.117 6.52263 7.319 6.24263C7.487 6.01063 7.775 5.78062 8.375 5.78062C9.109 5.78062 9.491 6.16862 9.62 6.55762C9.756 6.96762 9.64 7.42462 9.215 7.70762C8.514 8.17562 7.997 8.62762 7.725 9.26363C7.485 9.82363 7.485 10.4386 7.486 11.0156V11.1136H9.265C9.265 10.3856 9.28 10.1496 9.36 9.96362C9.42 9.82162 9.57 9.60762 10.202 9.18662C10.7146 8.85341 11.1016 8.35892 11.3019 7.78125C11.5022 7.20358 11.5043 6.57565 11.308 5.99662C10.933 4.86862 9.863 4.00163 8.375 4.00163C7.196 4.00163 6.374 4.51263 5.875 5.20463C5.48262 5.76398 5.26954 6.42939 5.264 7.11263H7.042ZM9.264 13.7796V12.0006H7.485V13.7786H9.265L9.264 13.7796Z" fill="#B5B6BA"/>
</g>
<defs>
<clipPath id="clip0_1_8208">
<rect width="16" height="16" fill="white" transform="translate(0.375 0.890625)"/>
</clipPath>
</defs>
</svg>
