<svg width="19" height="20" viewBox="0 0 19 20" fill="none" xmlns="http://www.w3.org/2000/svg">
<g clip-path="url(#clip0_1_8153)">
<path fill-rule="evenodd" clip-rule="evenodd" d="M9.5 2.4C5.30264 2.4 1.9 5.80264 1.9 10C1.9 14.1973 5.30264 17.6 9.5 17.6C13.6973 17.6 17.1 14.1973 17.1 10C17.1 5.80264 13.6973 2.4 9.5 2.4ZM0 10C0 4.75329 4.25329 0.5 9.5 0.5C14.7467 0.5 19 4.75329 19 10C19 15.2467 14.7467 19.5 9.5 19.5C4.25329 19.5 0 15.2467 0 10ZM8.37096 7.17071C8.15596 7.46933 8.075 7.85619 8.075 8.1H6.175C6.175 7.55215 6.33154 6.75151 6.82904 6.06054C7.36142 5.32112 8.24037 4.775 9.5 4.775C11.0903 4.775 12.2335 5.70155 12.6336 6.9065C13.0262 8.08934 12.6751 9.50004 11.452 10.3154C10.7768 10.7656 10.6166 10.9938 10.5513 11.1461C10.4664 11.3443 10.45 11.5973 10.45 12.375H8.55C8.55 12.3403 8.54995 12.3055 8.5499 12.2705C8.54907 11.6532 8.54818 10.9967 8.80493 10.3976C9.09592 9.71871 9.64821 9.23443 10.398 8.73455C10.8517 8.4321 10.9756 7.94281 10.8303 7.5051C10.6923 7.08952 10.2847 6.675 9.5 6.675C8.85963 6.675 8.55108 6.92054 8.37096 7.17071ZM10.45 13.325V15.225H8.55V13.325H10.45Z" fill="#74767E"/>
</g>
<defs>
<clipPath id="clip0_1_8153">
<rect width="19" height="19" fill="white" transform="translate(0 0.5)"/>
</clipPath>
</defs>
</svg>
