<svg width="19" height="18" viewBox="0 0 19 18" fill="none" xmlns="http://www.w3.org/2000/svg">
<g clip-path="url(#clip0_1_3915)">
<path d="M16.3031 2.26034C14.2712 0.551748 11.1316 0.808388 9.1875 2.78768C7.24337 0.808388 4.10391 0.548232 2.07188 2.26034C-0.57187 4.48573 -0.185151 8.11386 1.69922 10.0369L7.86563 16.3193C8.21719 16.6779 8.68828 16.8783 9.1875 16.8783C9.69024 16.8783 10.1578 16.6814 10.5094 16.3229L16.6758 10.0404C18.5566 8.11737 18.9504 4.48924 16.3031 2.26034ZM15.4734 8.85214L9.30703 15.1345C9.22266 15.2189 9.15234 15.2189 9.06797 15.1345L2.90156 8.85214C1.61837 7.54433 1.35821 5.06933 3.15821 3.55409C4.52578 2.40448 6.63516 2.57674 7.95703 3.92323L9.1875 5.17831L10.418 3.92323C11.7469 2.56971 13.8563 2.40448 15.2168 3.55058C17.0133 5.06581 16.7462 7.55487 15.4734 8.85214Z" fill="#74767E"/>
</g>
<defs>
<clipPath id="clip0_1_3915">
<rect width="18" height="18" fill="white" transform="translate(0.1875)"/>
</clipPath>
</defs>
</svg>
