<svg width="13" height="13" viewBox="0 0 13 13" fill="none" xmlns="http://www.w3.org/2000/svg">
<g clip-path="url(#clip0_1_8191)">
<path fill-rule="evenodd" clip-rule="evenodd" d="M6.45312 12.3906C8.04442 12.3906 9.57055 11.7585 10.6958 10.6333C11.821 9.50805 12.4531 7.98192 12.4531 6.39062C12.4531 4.79933 11.821 3.2732 10.6958 2.14798C9.57055 1.02277 8.04442 0.390625 6.45312 0.390625C4.86183 0.390625 3.3357 1.02277 2.21048 2.14798C1.08527 3.2732 0.453125 4.79933 0.453125 6.39062C0.453125 7.98192 1.08527 9.50805 2.21048 10.6333C3.3357 11.7585 4.86183 12.3906 6.45312 12.3906ZM5.45337 5.05713C5.45337 4.88613 5.50962 4.61462 5.66112 4.40462C5.78712 4.23063 6.00313 4.05813 6.45312 4.05813C7.00362 4.05813 7.29012 4.34912 7.38688 4.64087C7.48887 4.94837 7.40188 5.29112 7.08313 5.50338C6.55737 5.85437 6.16962 6.19338 5.96562 6.67037C5.78562 7.09037 5.78562 7.55162 5.78638 7.98438V8.05787H7.12063C7.12063 7.51187 7.13187 7.33488 7.19187 7.19537C7.23687 7.08887 7.34937 6.92837 7.82337 6.61262C8.20784 6.36271 8.49811 5.99185 8.64832 5.55859C8.79853 5.12534 8.80013 4.65439 8.65287 4.22012C8.37162 3.37413 7.56913 2.72388 6.45312 2.72388C5.56887 2.72388 4.95237 3.10713 4.57812 3.62613C4.28384 4.04564 4.12403 4.5447 4.11987 5.05713H5.45337ZM7.11987 10.0574V8.72312H5.78562V10.0566H7.12063L7.11987 10.0574Z" fill="#B5B6BA"/>
</g>
<defs>
<clipPath id="clip0_1_8191">
<rect width="12" height="12" fill="white" transform="translate(0.453125 0.390625)"/>
</clipPath>
</defs>
</svg>
