<svg width="33" height="33" viewBox="0 0 33 33" fill="none" xmlns="http://www.w3.org/2000/svg">
<g clip-path="url(#clip0_1_5361)">
<path d="M16.5 31.6094C25.0604 31.6094 32 24.6698 32 16.1094C32 7.54896 25.0604 0.609375 16.5 0.609375C7.93959 0.609375 1 7.54896 1 16.1094C1 24.6698 7.93959 31.6094 16.5 31.6094Z" fill="white" stroke="#74767E"/>
<path d="M16.5 11.6925C17.6506 11.6925 18.5834 10.7598 18.5834 9.60921C18.5834 8.45862 17.6506 7.52588 16.5 7.52588C15.3494 7.52588 14.4167 8.45862 14.4167 9.60921C14.4167 10.7598 15.3494 11.6925 16.5 11.6925Z" fill="#74767E"/>
<path d="M24.4167 12.5259H8.58333C8.36232 12.5259 8.15036 12.6137 7.99408 12.7699C7.8378 12.9262 7.75 13.1382 7.75 13.3592C7.75 13.5802 7.8378 13.7922 7.99408 13.9484C8.15036 14.1047 8.36232 14.1925 8.58333 14.1925H14V25.6509C14 25.9271 14.1097 26.1921 14.3051 26.3874C14.5004 26.5828 14.7654 26.6925 15.0417 26.6925C15.3179 26.6925 15.5829 26.5828 15.7782 26.3874C15.9736 26.1921 16.0833 25.9271 16.0833 25.6509V19.6092H16.9167V25.6509C16.9167 25.9271 17.0264 26.1921 17.2218 26.3874C17.4171 26.5828 17.6821 26.6925 17.9583 26.6925C18.2346 26.6925 18.4996 26.5828 18.6949 26.3874C18.8903 26.1921 19 25.9271 19 25.6509V14.1925H24.4167C24.6377 14.1925 24.8496 14.1047 25.0059 13.9484C25.1622 13.7922 25.25 13.5802 25.25 13.3592C25.25 13.1382 25.1622 12.9262 25.0059 12.7699C24.8496 12.6137 24.6377 12.5259 24.4167 12.5259Z" fill="#74767E"/>
</g>
<defs>
<clipPath id="clip0_1_5361">
<rect width="32" height="32" fill="white" transform="translate(0.5 0.109375)"/>
</clipPath>
</defs>
</svg>
