<svg width="15" height="15" viewBox="0 0 15 15" fill="none" xmlns="http://www.w3.org/2000/svg">
<g clip-path="url(#clip0_1_4525)">
<path d="M8.17654 13.75H7.37154C6.56654 13.75 5.91029 13.12 5.91029 12.3325V9.2H2.55904C1.83279 9.2 1.15029 8.85875 0.721535 8.29875C0.319035 7.75625 0.196535 7.0825 0.380285 6.44375L1.50029 2.64625C1.77154 1.71875 2.66404 1.0625 3.67904 1.0625H13.2078C13.5665 1.0625 13.864 1.36 13.864 1.71875V6.96875C13.864 7.3275 13.5665 7.625 13.2078 7.625H11.0553L8.78904 13.3387C8.69279 13.5925 8.44779 13.75 8.17654 13.75ZM3.67904 2.375C3.25029 2.375 2.87404 2.6375 2.76029 3.01375L1.64904 6.8025C1.55279 7.135 1.69279 7.38875 1.78029 7.5025C1.96404 7.73875 2.24404 7.87875 2.56779 7.87875H6.57529C6.93404 7.87875 7.23154 8.17625 7.23154 8.535V12.3237C7.23154 12.3675 7.29279 12.4288 7.38029 12.4288H7.73904L9.93526 6.89V2.375H3.67904ZM11.239 6.3125H12.5515V2.375H11.239V6.3125Z" fill="#404145"/>
</g>
<defs>
<clipPath id="clip0_1_4525">
<rect width="14" height="14" fill="white" transform="translate(0.078125 0.84375)"/>
</clipPath>
</defs>
</svg>
