<svg width="21" height="21" viewBox="0 0 21 21" fill="none" xmlns="http://www.w3.org/2000/svg">
<g clip-path="url(#clip0_1_5346)">
<path d="M10.5625 0.609375C5.0625 0.609375 0.5625 5.10938 0.5625 10.6094C0.5625 14.8594 3.1875 18.4844 6.9375 19.8594C6.8125 19.1094 6.8125 17.8594 6.9375 16.9844C7.0625 16.2344 8.0625 11.9844 8.0625 11.9844C8.0625 11.9844 7.8125 11.4844 7.8125 10.6094C7.8125 9.23438 8.6875 8.10938 9.6875 8.10938C10.5625 8.10938 10.9375 8.73438 10.9375 9.48438C10.9375 10.3594 10.4375 11.6094 10.0625 12.8594C9.8125 13.8594 10.5625 14.6094 11.5625 14.6094C13.3125 14.6094 14.6875 12.7344 14.6875 9.98438C14.6875 7.60938 12.9375 5.85938 10.5625 5.85938C7.6875 5.85938 6.0625 7.98438 6.0625 10.2344C6.0625 11.1094 6.4375 11.9844 6.8125 12.4844C6.8125 12.7344 6.8125 12.8594 6.8125 12.9844C6.6875 13.3594 6.5625 13.9844 6.5625 14.1094C6.5625 14.2344 6.4375 14.3594 6.1875 14.2344C4.9375 13.6094 4.1875 11.8594 4.1875 10.3594C4.1875 7.23438 6.4375 4.35938 10.8125 4.35938C14.3125 4.35938 16.9375 6.85938 16.9375 10.1094C16.9375 13.6094 14.8125 16.3594 11.6875 16.3594C10.6875 16.3594 9.6875 15.8594 9.4375 15.2344C9.4375 15.2344 8.9375 17.1094 8.8125 17.6094C8.5625 18.4844 7.9375 19.6094 7.5625 20.2344C8.5625 20.4844 9.5625 20.6094 10.5625 20.6094C16.0625 20.6094 20.5625 16.1094 20.5625 10.6094C20.5625 5.10938 16.0625 0.609375 10.5625 0.609375Z" fill="#74767E"/>
</g>
<defs>
<clipPath id="clip0_1_5346">
<rect width="20" height="20" fill="white" transform="translate(0.5625 0.609375)"/>
</clipPath>
</defs>
</svg>
