<svg width="21" height="21" viewBox="0 0 21 21" fill="none" xmlns="http://www.w3.org/2000/svg">
<g clip-path="url(#clip0_1_5337)">
<path d="M20.5625 3.98438C19.8125 4.35938 19.0625 4.48438 18.1875 4.60938C19.0625 4.10938 19.6875 3.35938 19.9375 2.35938C19.1875 2.85938 18.3125 3.10938 17.3125 3.35938C16.5625 2.60938 15.4375 2.10938 14.3125 2.10938C12.1875 2.10938 10.3125 3.98438 10.3125 6.23438C10.3125 6.60938 10.3125 6.85938 10.4375 7.10938C7.0625 6.98438 3.9375 5.35938 1.9375 2.85938C1.5625 3.48438 1.4375 4.10938 1.4375 4.98438C1.4375 6.35938 2.1875 7.60938 3.3125 8.35938C2.6875 8.35938 2.0625 8.10938 1.4375 7.85938C1.4375 9.85938 2.8125 11.4844 4.6875 11.8594C4.3125 11.9844 3.9375 11.9844 3.5625 11.9844C3.3125 11.9844 3.0625 11.9844 2.8125 11.8594C3.3125 13.4844 4.8125 14.7344 6.6875 14.7344C5.3125 15.8594 3.5625 16.4844 1.5625 16.4844C1.1875 16.4844 0.9375 16.4844 0.5625 16.4844C2.4375 17.6094 4.5625 18.3594 6.8125 18.3594C14.3125 18.3594 18.4375 12.1094 18.4375 6.73438C18.4375 6.60938 18.4375 6.35938 18.4375 6.23438C19.3125 5.60938 20.0625 4.85938 20.5625 3.98438Z" fill="#74767E"/>
</g>
<defs>
<clipPath id="clip0_1_5337">
<rect width="20" height="20" fill="white" transform="translate(0.5625 0.609375)"/>
</clipPath>
</defs>
</svg>
