<svg width="15" height="14" viewBox="0 0 15 14" fill="none" xmlns="http://www.w3.org/2000/svg">
<g clip-path="url(#clip0_1_7896)">
<path fill-rule="evenodd" clip-rule="evenodd" d="M2.37338 12.7969C1.83172 12.2865 1.46749 11.6803 1.28071 10.9785C1.09393 10.2767 1.09393 9.57943 1.28071 8.88672C1.46749 8.19401 1.83172 7.59245 2.37338 7.08203L8.67727 0.902344C9.06951 0.519531 9.54113 0.255208 10.0921 0.109375C10.6431 -0.0364583 11.1941 -0.0364583 11.7451 0.109375C12.2961 0.255208 12.7771 0.524089 13.188 0.916016C13.5989 1.30794 13.8791 1.77279 14.0285 2.31055C14.178 2.84831 14.178 3.38607 14.0285 3.92383C13.8791 4.46159 13.5989 4.93099 13.188 5.33203L7.89279 10.5273C7.44451 10.9466 6.91218 11.1562 6.29579 11.1562C5.67941 11.1562 5.1471 10.9421 4.69882 10.5137C4.25054 10.0853 4.02641 9.57031 4.02641 8.96875C4.02641 8.36719 4.25054 7.84766 4.69882 7.41016L9.20959 3.00781C9.26562 2.95312 9.34033 2.92578 9.43373 2.92578C9.52712 2.92578 9.60183 2.95312 9.65786 3.00781L10.1342 3.47266C10.2089 3.54557 10.2462 3.6276 10.2462 3.71875C10.2462 3.8099 10.2089 3.88281 10.1342 3.9375L5.6514 8.33984C5.46461 8.50391 5.37122 8.70898 5.37122 8.95508C5.37122 9.20117 5.46461 9.41081 5.6514 9.58398C5.83818 9.75716 6.05765 9.84375 6.3098 9.84375C6.56196 9.84375 6.7721 9.76172 6.9402 9.59766L12.2634 4.40234C12.6183 4.05599 12.7958 3.63216 12.7958 3.13086C12.7958 2.62956 12.6137 2.20117 12.2494 1.8457C11.8852 1.49023 11.4463 1.3125 10.9327 1.3125C10.419 1.3125 9.9754 1.48568 9.60184 1.83203L3.29796 7.98438C2.75628 8.53125 2.48546 9.18294 2.48546 9.93945C2.48546 10.696 2.76095 11.3431 3.31196 11.8809C3.86297 12.4186 4.52605 12.6875 5.30119 12.6875C6.07632 12.6875 6.74408 12.4141 7.30442 11.8672L12.7678 6.50781C12.8425 6.45312 12.9265 6.42578 13.0199 6.42578C13.1133 6.42578 13.188 6.45312 13.244 6.50781L13.7203 6.97266C13.7951 7.04557 13.8324 7.1276 13.8324 7.21875C13.8324 7.3099 13.7951 7.38281 13.7203 7.4375L8.25701 12.7969C7.71534 13.3255 7.08962 13.681 6.37985 13.8633C5.67007 14.0456 4.95564 14.0456 4.23654 13.8633C3.51743 13.681 2.89637 13.3255 2.37338 12.7969Z" fill="#62646A"/>
</g>
<defs>
<clipPath id="clip0_1_7896">
<rect width="14" height="14" fill="white" transform="translate(0.640625)"/>
</clipPath>
</defs>
</svg>
