<svg width="17" height="17" viewBox="0 0 17 17" fill="none" xmlns="http://www.w3.org/2000/svg">
<g clip-path="url(#clip0_1_8184)">
<path fill-rule="evenodd" clip-rule="evenodd" d="M8.07812 16.7969C10.1999 16.7969 12.2347 15.954 13.735 14.4537C15.2353 12.9534 16.0781 10.9186 16.0781 8.79688C16.0781 6.67514 15.2353 4.64031 13.735 3.14002C12.2347 1.63973 10.1999 0.796875 8.07812 0.796875C5.95639 0.796875 3.92156 1.63973 2.42127 3.14002C0.92098 4.64031 0.078125 6.67514 0.078125 8.79688C0.078125 10.9186 0.92098 12.9534 2.42127 14.4537C3.92156 15.954 5.95639 16.7969 8.07812 16.7969ZM6.74512 7.01888C6.74512 6.79087 6.82012 6.42888 7.02212 6.14888C7.19012 5.91688 7.47813 5.68687 8.07812 5.68687C8.81213 5.68687 9.19413 6.07487 9.32312 6.46387C9.45912 6.87387 9.34313 7.33087 8.91813 7.61387C8.21712 8.08187 7.70012 8.53387 7.42812 9.16988C7.18813 9.72988 7.18813 10.3449 7.18913 10.9219V11.0199H8.96813C8.96813 10.2919 8.98312 10.0559 9.06312 9.86987C9.12313 9.72787 9.27312 9.51387 9.90512 9.09287C10.4178 8.75966 10.8048 8.26517 11.0051 7.6875C11.2053 7.10983 11.2075 6.4819 11.0111 5.90287C10.6361 4.77487 9.56612 3.90788 8.07812 3.90788C6.89913 3.90788 6.07713 4.41888 5.57812 5.11088C5.18575 5.67023 4.97266 6.33564 4.96712 7.01888H6.74512ZM8.96712 13.6859V11.9069H7.18813V13.6849H8.96813L8.96712 13.6859Z" fill="#B5B6BA"/>
</g>
<defs>
<clipPath id="clip0_1_8184">
<rect width="16" height="16" fill="white" transform="translate(0.078125 0.796875)"/>
</clipPath>
</defs>
</svg>
