<svg width="78" height="24" viewBox="0 0 78 24" fill="none" xmlns="http://www.w3.org/2000/svg">
<g clip-path="url(#clip0_1_5327)">
<path d="M70.6462 11.7711H67.9385C66.1615 11.7711 65.2308 13.0404 65.2308 15.2404V23.1096H60.0692V11.7711H57.8692C56.0923 11.7711 55.1615 13.0404 55.1615 15.2404V23.1096H50V7.54037H55.1615V9.9096C56.0077 8.04806 57.1923 7.54037 58.8846 7.54037H65.1462V9.9096C65.9923 8.04806 67.1769 7.54037 68.8692 7.54037H70.5615V11.7711H70.6462ZM48.9846 16.5096H38.3231C38.5769 18.2865 39.6769 19.2173 41.5385 19.2173C42.8923 19.2173 43.9077 18.625 44.1615 17.6942L48.7308 18.9634C47.6308 21.6711 44.8385 23.2788 41.5385 23.2788C35.9538 23.2788 33.4154 18.9634 33.4154 15.2404C33.4154 11.6019 35.6154 7.28652 41.2 7.28652C47.1231 7.28652 49.0692 11.6865 49.0692 14.9865C49.0692 15.7481 49.0692 16.1711 48.9846 16.5096ZM43.9923 13.5481C43.9077 12.1942 42.8923 11.0096 41.2 11.0096C39.5923 11.0096 38.5769 11.6865 38.3231 13.5481H43.9923ZM24.4462 23.1096H28.9308L34.6 7.62498H29.4385L26.7308 16.6788L23.8538 7.54037H18.6923L24.4462 23.1096ZM3.37692 23.1096H8.45385V11.7711H13.2769V23.1096H18.3538V7.54037H8.53846V6.6096C8.53846 5.59422 9.3 4.91729 10.4846 4.91729H13.4462V0.686523H9.72308C5.91538 0.686523 3.37692 2.97114 3.37692 6.27114V7.54037H0.5V11.7711H3.37692V23.1096Z" fill="#7A7D85"/>
<path d="M76.9923 20.4016C76.9923 22.1785 75.6384 23.5324 73.7769 23.5324C71.9154 23.5324 70.5615 22.1785 70.5615 20.4016C70.5615 18.6247 71.9154 17.2708 73.7769 17.2708C75.6384 17.1862 76.9923 18.5401 76.9923 20.4016ZM76.4 20.4016C76.4 18.8785 75.3 17.7785 73.7769 17.7785C72.2538 17.7785 71.1538 18.8785 71.1538 20.4016C71.1538 21.9247 72.2538 23.0247 73.7769 23.0247C75.3 23.0247 76.4 21.8401 76.4 20.4016ZM74.9615 21.0785L75.0461 21.8401H74.4538L74.3692 21.0785C74.3692 20.8247 74.2 20.6555 73.9461 20.6555H73.2692V21.8401H72.6769V18.8785H73.8615C74.4538 18.8785 74.8769 19.217 74.8769 19.8093C74.8769 20.1478 74.7077 20.317 74.4538 20.4862C74.7923 20.5708 74.8769 20.7401 74.9615 21.0785ZM73.3538 20.2324H73.9461C74.2846 20.2324 74.3692 19.9785 74.3692 19.8093C74.3692 19.5555 74.2 19.3862 73.9461 19.3862H73.3538V20.2324Z" fill="#7A7D85"/>
</g>
<defs>
<clipPath id="clip0_1_5327">
<rect width="77" height="23" fill="white" transform="translate(0.5 0.609375)"/>
</clipPath>
</defs>
</svg>
