<svg width="21" height="21" viewBox="0 0 21 21" fill="none" xmlns="http://www.w3.org/2000/svg">
<g clip-path="url(#clip0_1_5340)">
<path d="M20.5625 10.6116C20.5629 8.70041 20.0157 6.82917 18.9856 5.21941C17.9555 3.60964 16.4857 2.32875 14.7502 1.52844C13.0147 0.728116 11.0862 0.441872 9.19303 0.703597C7.29989 0.965323 5.5214 1.76405 4.06814 3.00522C2.61487 4.24639 1.54771 5.87801 0.992995 7.70687C0.438283 9.53574 0.419261 11.4853 0.93818 13.3246C1.4571 15.164 2.49223 16.8161 3.92099 18.0854C5.34976 19.3547 7.11233 20.188 9 20.4866V13.5016H6.46125V10.6116H9V8.4078C8.94534 7.89336 9.00449 7.37319 9.17328 6.88417C9.34207 6.39514 9.61636 5.94923 9.9767 5.57803C10.337 5.20683 10.7746 4.91945 11.2584 4.73622C11.7422 4.553 12.2604 4.47843 12.7762 4.51781C13.5263 4.52766 14.2746 4.59283 15.015 4.7128V7.17656H13.755C13.5404 7.14849 13.3222 7.16904 13.1165 7.2367C12.9109 7.30435 12.7232 7.41739 12.5671 7.56742C12.4111 7.71745 12.2908 7.90065 12.2151 8.10346C12.1395 8.30626 12.1104 8.52348 12.13 8.73905V10.6141H14.9037L14.46 13.5041H12.125V20.4928C14.4778 20.1206 16.6205 18.9208 18.1673 17.1093C19.7141 15.2978 20.5635 12.9936 20.5625 10.6116Z" fill="#74767E"/>
</g>
<defs>
<clipPath id="clip0_1_5340">
<rect width="20" height="20" fill="white" transform="translate(0.5625 0.609375)"/>
</clipPath>
</defs>
</svg>
