<svg width="16" height="16" viewBox="0 0 16 16" fill="none" xmlns="http://www.w3.org/2000/svg">
<g clip-path="url(#clip0_1_3956)">
<path fill-rule="evenodd" clip-rule="evenodd" d="M15.2188 6.80892C15.2188 6.96843 15.1016 7.11907 14.9844 7.23426L11.7121 10.3711L12.4873 14.8016C12.4964 14.8636 12.4964 14.9167 12.4964 14.9788C12.4964 15.2093 12.3882 15.4219 12.1268 15.4219C12.0006 15.4219 11.8744 15.3775 11.7662 15.3156L7.71875 13.2244L3.67127 15.3156C3.55408 15.3775 3.4369 15.4219 3.3107 15.4219C3.04928 15.4219 2.93209 15.2093 2.93209 14.9788C2.93209 14.9167 2.94111 14.8636 2.95012 14.8016L3.72536 10.3711L0.444111 7.23426C0.335937 7.11907 0.21875 6.96843 0.21875 6.80892C0.21875 6.54309 0.498197 6.43676 0.723558 6.40132L5.2488 5.75446L7.27705 1.72268C7.35818 1.55432 7.51142 1.35938 7.71875 1.35938C7.92608 1.35938 8.07933 1.55432 8.16045 1.72268L10.1887 5.75446L14.7139 6.40132C14.9303 6.43676 15.2188 6.54309 15.2188 6.80892Z" fill="#FFB33E"/>
</g>
<defs>
<clipPath id="clip0_1_3956">
<rect width="15" height="15" fill="white" transform="translate(0.21875 0.890625)"/>
</clipPath>
</defs>
</svg>
