<svg width="17" height="16" viewBox="0 0 17 16" fill="none" xmlns="http://www.w3.org/2000/svg">
<g clip-path="url(#clip0_1_4798)">
<path d="M6.25492 13.2393L1.18292 8.16729C1.11031 8.09487 1.0527 8.00884 1.0134 7.91411C0.97409 7.81939 0.953857 7.71785 0.953857 7.61529C0.953857 7.51274 0.97409 7.41119 1.0134 7.31647C1.0527 7.22175 1.11031 7.13572 1.18292 7.06329L2.28692 5.96075C2.59238 5.65529 3.08547 5.65529 3.38947 5.96075L6.80765 9.37748L14.1226 2.05966C14.428 1.7542 14.9226 1.7542 15.2266 2.05966L16.3291 3.1622C16.6346 3.46766 16.6346 3.9622 16.3291 4.2662L7.35747 13.2393C7.05347 13.5447 6.55892 13.5447 6.25492 13.2393Z" fill="#DADBDD"/>
</g>
<defs>
<clipPath id="clip0_1_4798">
<rect width="16" height="16" fill="white" transform="translate(0.953125)"/>
</clipPath>
</defs>
</svg>
