<svg width="17" height="16" viewBox="0 0 17 16" fill="none" xmlns="http://www.w3.org/2000/svg">
<g clip-path="url(#clip0_1_4821)">
<path d="M10.4234 2.96875C10.1386 2.66797 9.67684 2.66797 9.39206 2.96875C9.10727 3.26953 9.10727 3.75719 9.39206 4.05797L12.1958 7.01921H1.9862C1.58345 7.01921 1.25696 7.36403 1.25696 7.7894C1.25696 8.21477 1.58345 8.5596 1.9862 8.5596H12.3436L9.39206 11.6769C9.10727 11.9777 9.10727 12.4653 9.39206 12.7661C9.67684 13.0669 10.1386 13.0669 10.4234 12.7661L14.5459 8.41203C14.8307 8.11125 14.8307 7.62359 14.5459 7.32281L14.477 7.25001C14.4737 7.24651 14.4704 7.24305 14.4671 7.23962L10.4234 2.96875Z" fill="white"/>
</g>
<defs>
<clipPath id="clip0_1_4821">
<rect width="16" height="16" fill="white" transform="translate(0.5)"/>
</clipPath>
</defs>
</svg>
