<svg width="251" height="151" viewBox="0 0 251 151" fill="none" xmlns="http://www.w3.org/2000/svg">
<g clip-path="url(#clip0_1_4887)">
<rect width="250" height="150" transform="translate(0.5 0.34375)" fill="#EFEFF0"/>
<g clip-path="url(#clip1_1_4887)">
<g clip-path="url(#clip2_1_4887)">
<path opacity="0.3" d="M237.5 27.3438C237.5 19.6118 231.232 13.3438 223.5 13.3438C215.768 13.3438 209.5 19.6118 209.5 27.3438C209.5 35.0757 215.768 41.3438 223.5 41.3438C231.232 41.3438 237.5 35.0757 237.5 27.3438Z" fill="black" stroke="black" stroke-width="2" stroke-dasharray="100 100"/>
<path d="M237.5 27.3438C237.5 19.6118 231.232 13.3438 223.5 13.3438C215.768 13.3438 209.5 19.6118 209.5 27.3438C209.5 35.0757 215.768 41.3438 223.5 41.3438C231.232 41.3438 237.5 35.0757 237.5 27.3438Z" stroke="white" stroke-width="2" stroke-dasharray="100 100"/>
</g>
<g opacity="0.9">
<g clip-path="url(#clip3_1_4887)">
<path opacity="0.5" d="M223.5 40.3438C230.68 40.3438 236.5 34.5235 236.5 27.3438C236.5 20.164 230.68 14.3438 223.5 14.3438C216.32 14.3438 210.5 20.164 210.5 27.3438C210.5 34.5235 216.32 40.3438 223.5 40.3438Z" fill="black"/>
<path d="M228.7 27.8437L220.8 32.2437C220.736 32.2896 220.663 32.321 220.586 32.3358C220.509 32.3505 220.43 32.3483 220.354 32.3293C220.277 32.3103 220.206 32.2748 220.145 32.2255C220.084 32.1762 220.035 32.1142 220 32.0437C220 31.9437 219.9 31.8437 219.9 31.7437V22.8437C219.939 22.6915 220.031 22.558 220.159 22.4665C220.287 22.3751 220.443 22.3316 220.6 22.3437C220.654 22.3372 220.709 22.3428 220.761 22.3601C220.813 22.3773 220.86 22.4059 220.9 22.4437L228.8 26.8437C228.868 26.8662 228.93 26.905 228.98 26.9568C229.029 27.0085 229.066 27.0717 229.085 27.1407C229.105 27.2098 229.108 27.2826 229.093 27.3528C229.078 27.4231 229.046 27.4886 229 27.5437L228.7 27.8437Z" fill="white"/>
<path opacity="0.75" d="M249.5 40.3438C256.68 40.3438 262.5 34.5235 262.5 27.3438C262.5 20.164 256.68 14.3438 249.5 14.3438C242.32 14.3438 236.5 20.164 236.5 27.3438C236.5 34.5235 242.32 40.3438 249.5 40.3438Z" fill="black"/>
<path d="M254.7 27.8437L246.8 32.2437C246.736 32.2896 246.663 32.321 246.586 32.3358C246.509 32.3505 246.43 32.3483 246.354 32.3293C246.277 32.3103 246.206 32.2748 246.145 32.2255C246.084 32.1762 246.035 32.1142 246 32.0437C246 31.9437 245.9 31.8437 245.9 31.7437V22.8437C245.939 22.6915 246.031 22.558 246.159 22.4665C246.287 22.3751 246.443 22.3316 246.6 22.3437C246.654 22.3372 246.709 22.3428 246.761 22.3601C246.813 22.3773 246.86 22.4059 246.9 22.4437L254.8 26.8437C254.868 26.8662 254.93 26.905 254.98 26.9568C255.029 27.0085 255.066 27.0717 255.085 27.1407C255.105 27.2098 255.108 27.2826 255.093 27.3528C255.078 27.4231 255.046 27.4886 255 27.5437L254.7 27.8437Z" fill="white"/>
</g>
</g>
</g>
</g>
<defs>
<clipPath id="clip0_1_4887">
<rect width="250" height="150" fill="white" transform="translate(0.5 0.34375)"/>
</clipPath>
<clipPath id="clip1_1_4887">
<rect width="250" height="150" fill="white" transform="translate(0.5 0.34375)"/>
</clipPath>
<clipPath id="clip2_1_4887">
<rect x="200.5" y="47.3438" width="40" height="50" rx="20" transform="rotate(-90 200.5 47.3438)" fill="white"/>
</clipPath>
<clipPath id="clip3_1_4887">
<rect width="104" height="26" fill="white" transform="translate(210.5 14.3438)"/>
</clipPath>
</defs>
</svg>
