<svg width="15" height="15" viewBox="0 0 15 15" fill="none" xmlns="http://www.w3.org/2000/svg">
<g clip-path="url(#clip0_1_4520)">
<path d="M10.5444 13.75H1.01562C0.656875 13.75 0.359375 13.4525 0.359375 13.0938V7.84375C0.359375 7.485 0.656875 7.1875 1.01562 7.1875H3.16813L5.43438 1.47375C5.53063 1.22 5.77563 1.0625 6.04688 1.0625H6.85188C7.65688 1.0625 8.31313 1.70125 8.31313 2.48V5.6125H11.6644C12.3906 5.6125 13.0731 5.95375 13.5019 6.51375C13.9044 7.05625 14.0269 7.73 13.8431 8.36875L12.7319 12.1575C12.4606 13.085 11.5681 13.7413 10.5531 13.7413L10.5444 13.75ZM4.29688 12.4375H10.5444C10.9731 12.4375 11.3494 12.175 11.4631 11.7987L12.5744 8.01C12.6706 7.6775 12.5306 7.42375 12.4431 7.31C12.2594 7.07375 11.9794 6.93375 11.6556 6.93375H7.64812C7.28937 6.93375 6.99187 6.63625 6.99187 6.2775V2.48C6.99187 2.4275 6.93062 2.375 6.84312 2.375H6.48438L4.28812 7.91375V12.4375H4.29688ZM1.67188 12.4375H2.98438V8.5H1.67188V12.4375Z" fill="#404145"/>
</g>
<defs>
<clipPath id="clip0_1_4520">
<rect width="14" height="14" fill="white" transform="translate(0.140625 0.84375)"/>
</clipPath>
</defs>
</svg>
