<svg width="16" height="16" viewBox="0 0 16 16" fill="none" xmlns="http://www.w3.org/2000/svg">
<g clip-path="url(#clip0_1_4717)">
<path fill-rule="evenodd" clip-rule="evenodd" d="M10.7494 9.42545L13.5078 6.79371L9.70373 6.24433L8 2.8594L6.29627 6.24433L2.49219 6.79371L5.2506 9.42545L4.59254 13.156L8 11.3926L11.3984 13.156L10.7494 9.42545ZM15.5 6.26205C15.5 6.42155 15.3828 6.57219 15.2656 6.68738L11.9934 9.8242L12.7686 14.2548C12.7777 14.3167 12.7777 14.3699 12.7777 14.4319C12.7777 14.6712 12.6695 14.875 12.408 14.875C12.2818 14.875 12.1557 14.8307 12.0475 14.7687L8 12.6775L3.95252 14.7687C3.83533 14.8307 3.71815 14.875 3.59195 14.875C3.33053 14.875 3.21334 14.6624 3.21334 14.4319C3.21334 14.3699 3.22236 14.3167 3.23137 14.2548L4.00661 9.8242L0.725361 6.68738C0.617187 6.57219 0.5 6.42155 0.5 6.26205C0.5 5.99622 0.779447 5.88989 1.00481 5.85444L5.53005 5.20758L7.5583 1.1758C7.63943 1.00744 7.79267 0.8125 8 0.8125C8.20733 0.8125 8.36058 1.00744 8.4417 1.1758L10.4699 5.20758L14.9952 5.85444C15.2115 5.88989 15.5 5.99622 15.5 6.26205Z" fill="#FFB33E"/>
</g>
<defs>
<clipPath id="clip0_1_4717">
<rect width="15" height="15" fill="white" transform="translate(0.5 0.34375)"/>
</clipPath>
</defs>
</svg>
