<svg width="49" height="43" viewBox="0 0 49 43" fill="none" xmlns="http://www.w3.org/2000/svg">
<path d="M0.5 0.34375H44.5C46.7091 0.34375 48.5 2.13461 48.5 4.34375V38.3438C48.5 40.5529 46.7091 42.3438 44.5 42.3438H0.5V0.34375Z" fill="#222325"/>
<g clip-path="url(#clip0_1_4464)">
<path d="M32.3906 27.9969L28.5969 24.2031C28.525 24.1312 28.4313 24.0938 28.3313 24.0938H27.9187C28.9031 22.9531 29.5 21.4688 29.5 19.8438C29.5 16.2531 26.5906 13.3438 23 13.3438C19.4094 13.3438 16.5 16.2531 16.5 19.8438C16.5 23.4344 19.4094 26.3438 23 26.3438C24.625 26.3438 26.1094 25.7469 27.25 24.7625V25.175C27.25 25.2751 27.2906 25.3687 27.3594 25.4406L31.1531 29.2344C31.3 29.3813 31.5375 29.3813 31.6844 29.2344L32.3906 28.5281C32.5375 28.3812 32.5375 28.1438 32.3906 27.9969ZM23 24.8438C20.2375 24.8438 18 22.6062 18 19.8438C18 17.0812 20.2375 14.8438 23 14.8438C25.7625 14.8438 28 17.0812 28 19.8438C28 22.6062 25.7625 24.8438 23 24.8438Z" fill="white"/>
</g>
<defs>
<clipPath id="clip0_1_4464">
<rect width="16" height="16" fill="white" transform="translate(16.5 13.3438)"/>
</clipPath>
</defs>
</svg>
