<svg width="25" height="25" viewBox="0 0 25 25" fill="none" xmlns="http://www.w3.org/2000/svg">
<g clip-path="url(#clip0_1_8252)">
<path d="M21.0332 4.92674L17.1499 1.0434C16.7332 0.626736 16.1684 0.390625 15.5809 0.390625H6.12996C4.90357 0.395255 3.9082 1.39062 3.9082 2.61702V21.8726C3.9082 23.099 4.90357 24.0944 6.12996 24.0944H19.4642C20.6906 24.0944 21.686 23.099 21.686 21.8726V6.50035C21.686 5.91285 21.4499 5.34341 21.0332 4.92674ZM15.7614 1.89943C15.891 1.93183 16.0068 1.99664 16.104 2.09387L19.9874 5.9772C20.0846 6.07442 20.1494 6.19016 20.1818 6.31979H15.7614V1.89943ZM20.205 21.8726C20.205 22.28 19.8717 22.6133 19.4642 22.6133H6.12996C5.72256 22.6133 5.38923 22.28 5.38923 21.8726V2.61702C5.38923 2.2096 5.72256 1.87211 6.12996 1.87211H14.2799V6.69016C14.2799 7.3059 14.7753 7.79803 15.391 7.79803H20.205V21.8726ZM9.46376 12.2424H9.09339C7.86607 12.2424 6.87116 13.2374 6.87116 14.4647V15.9462C6.87116 17.1735 7.86607 18.1684 9.09339 18.1684H9.46376C9.66839 18.1684 9.83413 18.0026 9.83413 17.798V17.0573C9.83413 16.8527 9.66839 16.6869 9.46376 16.6869H9.09339C8.68413 16.6869 8.35265 16.3554 8.35265 15.9462V14.4647C8.35265 14.0554 8.68413 13.724 9.09339 13.724H9.46376C9.66839 13.724 9.83413 13.5582 9.83413 13.3536V12.6128C9.83413 12.4082 9.66839 12.2424 9.46376 12.2424ZM14.6489 12.2424C14.4443 12.2424 14.2786 12.4082 14.2786 12.6128V13.5758C14.2786 15.2184 14.8749 16.7652 15.9582 17.9319C16.098 18.0823 16.2948 18.1684 16.5008 18.1684C16.7068 18.1684 16.9036 18.0823 17.0434 17.9319C18.1272 16.7652 18.723 15.2184 18.723 13.5758V12.6128C18.723 12.4082 18.5573 12.2424 18.3526 12.2424H17.6119C17.4073 12.2424 17.2415 12.4082 17.2415 12.6128V13.5758C17.2415 14.5143 16.9776 15.4355 16.5008 16.2091C16.0239 15.436 15.76 14.5143 15.76 13.5758V12.6128C15.76 12.4082 15.5943 12.2424 15.3897 12.2424H14.6489ZM12.2161 14.2087C12.1522 14.1536 12.1179 14.0906 12.1179 14.0309C12.1179 13.8864 12.3239 13.7244 12.5999 13.7244H13.1675C13.3721 13.7244 13.5378 13.5587 13.5378 13.3541V12.6133C13.5378 12.4087 13.3721 12.243 13.1675 12.243H12.5994C11.5165 12.243 10.636 13.0453 10.636 14.0309C10.636 14.5244 10.861 14.9994 11.2531 15.3336L12.2665 16.2026C12.3304 16.2577 12.3647 16.3208 12.3647 16.3804C12.3647 16.5248 12.1587 16.6869 11.8827 16.6869H11.3156C11.111 16.6869 10.9452 16.8527 10.9452 17.0573V17.798C10.9452 18.0026 11.111 18.1684 11.3156 18.1684H11.8837C12.9665 18.1684 13.847 17.3661 13.847 16.3804C13.847 15.8869 13.6221 15.412 13.23 15.0776L12.2161 14.2087Z" fill="#188652"/>
</g>
<defs>
<clipPath id="clip0_1_8252">
<rect width="24" height="24" fill="white" transform="translate(0.796875 0.390625)"/>
</clipPath>
</defs>
</svg>
