<svg width="13" height="13" viewBox="0 0 13 13" fill="none" xmlns="http://www.w3.org/2000/svg">
<g clip-path="url(#clip0_1_8198)">
<path fill-rule="evenodd" clip-rule="evenodd" d="M6.75 12.7812C8.3413 12.7812 9.86742 12.1491 10.9926 11.0239C12.1179 9.89867 12.75 8.37255 12.75 6.78125C12.75 5.18995 12.1179 3.66383 10.9926 2.53861C9.86742 1.41339 8.3413 0.78125 6.75 0.78125C5.1587 0.78125 3.63258 1.41339 2.50736 2.53861C1.38214 3.66383 0.75 5.18995 0.75 6.78125C0.75 8.37255 1.38214 9.89867 2.50736 11.0239C3.63258 12.1491 5.1587 12.7812 6.75 12.7812ZM5.75025 5.44775C5.75025 5.27675 5.8065 5.00525 5.958 4.79525C6.084 4.62125 6.3 4.44875 6.75 4.44875C7.3005 4.44875 7.587 4.73975 7.68375 5.0315C7.78575 5.339 7.69875 5.68175 7.38 5.894C6.85425 6.245 6.4665 6.584 6.2625 7.061C6.0825 7.481 6.0825 7.94225 6.08325 8.375V8.4485H7.4175C7.4175 7.9025 7.42875 7.7255 7.48875 7.586C7.53375 7.4795 7.64625 7.319 8.12025 7.00325C8.50472 6.75334 8.79498 6.38247 8.9452 5.94922C9.09541 5.51596 9.09701 5.04502 8.94975 4.61075C8.6685 3.76475 7.866 3.1145 6.75 3.1145C5.86575 3.1145 5.24925 3.49775 4.875 4.01675C4.58072 4.43627 4.4209 4.93533 4.41675 5.44775H5.75025ZM7.41675 10.448V9.11375H6.0825V10.4472H7.4175L7.41675 10.448Z" fill="#B5B6BA"/>
</g>
<defs>
<clipPath id="clip0_1_8198">
<rect width="12" height="12" fill="white" transform="translate(0.75 0.78125)"/>
</clipPath>
</defs>
</svg>
