<svg width="13" height="13" viewBox="0 0 13 13" fill="none" xmlns="http://www.w3.org/2000/svg">
<g clip-path="url(#clip0_1_8174)">
<path fill-rule="evenodd" clip-rule="evenodd" d="M6.21875 12.3906C7.81005 12.3906 9.33617 11.7585 10.4614 10.6333C11.5866 9.50805 12.2188 7.98192 12.2188 6.39062C12.2188 4.79933 11.5866 3.2732 10.4614 2.14798C9.33617 1.02277 7.81005 0.390625 6.21875 0.390625C4.62745 0.390625 3.10133 1.02277 1.97611 2.14798C0.850891 3.2732 0.21875 4.79933 0.21875 6.39062C0.21875 7.98192 0.850891 9.50805 1.97611 10.6333C3.10133 11.7585 4.62745 12.3906 6.21875 12.3906ZM5.219 5.05713C5.219 4.88613 5.27525 4.61462 5.42675 4.40462C5.55275 4.23063 5.76875 4.05813 6.21875 4.05813C6.76925 4.05813 7.05575 4.34912 7.1525 4.64087C7.2545 4.94837 7.1675 5.29112 6.84875 5.50338C6.323 5.85437 5.93525 6.19338 5.73125 6.67037C5.55125 7.09037 5.55125 7.55162 5.552 7.98438V8.05787H6.88625C6.88625 7.51187 6.8975 7.33488 6.9575 7.19537C7.0025 7.08887 7.115 6.92837 7.589 6.61262C7.97347 6.36271 8.26373 5.99185 8.41395 5.55859C8.56416 5.12534 8.56576 4.65439 8.4185 4.22012C8.13725 3.37413 7.33475 2.72388 6.21875 2.72388C5.3345 2.72388 4.718 3.10713 4.34375 3.62613C4.04947 4.04564 3.88965 4.5447 3.8855 5.05713H5.219ZM6.8855 10.0574V8.72312H5.55125V10.0566H6.88625L6.8855 10.0574Z" fill="#B5B6BA"/>
</g>
<defs>
<clipPath id="clip0_1_8174">
<rect width="12" height="12" fill="white" transform="translate(0.21875 0.390625)"/>
</clipPath>
</defs>
</svg>
