<svg width="21" height="21" viewBox="0 0 21 21" fill="none" xmlns="http://www.w3.org/2000/svg">
<g clip-path="url(#clip0_1_5343)">
<path d="M18.7768 1.08545H1.39583C0.919643 1.08545 0.5625 1.44259 0.5625 1.91878V19.4188C0.5625 19.7759 0.919643 20.1331 1.39583 20.1331H18.8958C19.372 20.1331 19.7292 19.7759 19.7292 19.2997V1.91878C19.6101 1.44259 19.253 1.08545 18.7768 1.08545ZM6.15774 17.2759H3.41964V8.22831H6.27679V17.2759H6.15774ZM4.84821 7.03783C3.89583 7.03783 3.18155 6.2045 3.18155 5.37116C3.18155 4.41878 3.89583 3.7045 4.84821 3.7045C5.80059 3.7045 6.51488 4.41878 6.51488 5.37116C6.39583 6.2045 5.68155 7.03783 4.84821 7.03783ZM16.753 17.2759H13.8958V12.8712C13.8958 11.7997 13.8958 10.4902 12.4673 10.4902C11.0387 10.4902 10.8006 11.6807 10.8006 12.8712V17.395H7.94345V8.22831H10.6815V9.41878C11.0387 8.7045 11.9911 7.99021 13.3006 7.99021C16.1577 7.99021 16.6339 9.89497 16.6339 12.2759V17.2759H16.753Z" fill="#74767E"/>
</g>
<defs>
<clipPath id="clip0_1_5343">
<rect width="20" height="20" fill="white" transform="translate(0.5625 0.609375)"/>
</clipPath>
</defs>
</svg>
