<svg width="17" height="17" viewBox="0 0 17 17" fill="none" xmlns="http://www.w3.org/2000/svg">
<g clip-path="url(#clip0_1_5356)">
<path d="M8.56253 1.49805C4.64142 1.49805 1.45142 4.68805 1.45142 8.60916C1.45142 12.5303 4.64142 15.7203 8.56253 15.7203C12.4837 15.7203 15.6736 12.5303 15.6736 8.60916C15.6736 4.68805 12.4837 1.49805 8.56253 1.49805ZM8.14586 4.9885C7.51197 4.96126 6.88446 4.87218 6.28529 4.72732C6.381 4.50054 6.48484 4.28277 6.59681 4.07638C7.05623 3.22982 7.62025 2.63574 8.14586 2.42057V4.9885ZM8.14586 5.82248V8.19249H5.54332C5.57999 7.26747 5.73766 6.34918 5.9984 5.51389C6.68937 5.68793 7.41474 5.79329 8.14586 5.82248ZM8.14586 9.02582V11.3958C7.41474 11.425 6.68937 11.5304 5.9984 11.7044C5.73766 10.8692 5.57999 9.95085 5.54332 9.02582H8.14586ZM8.14586 12.2298V14.7978C7.62025 14.5826 7.05623 13.9885 6.59681 13.142C6.48484 12.9356 6.381 12.7178 6.28529 12.491C6.88446 12.3461 7.51185 12.2571 8.14586 12.2298ZM8.97919 12.2298C9.6131 12.2571 10.2406 12.3461 10.8398 12.491C10.744 12.7178 10.6402 12.9356 10.5282 13.142C10.0688 13.9885 9.50484 14.5826 8.97919 14.7978V12.2298ZM8.97919 11.3958V9.02582H11.5817C11.545 9.95085 11.3874 10.8692 11.1266 11.7044C10.4357 11.5304 9.71035 11.425 8.97919 11.3958ZM8.97919 8.19249V5.82248C9.71035 5.79329 10.4357 5.68793 11.1266 5.51389C11.3874 6.34918 11.545 7.26747 11.5817 8.19249H8.97919ZM8.97919 4.9885V2.42057C9.50484 2.63574 10.0688 3.22982 10.5282 4.07638C10.6402 4.28277 10.744 4.50054 10.8398 4.72732C10.2406 4.87218 9.6131 4.96126 8.97919 4.9885ZM11.2607 3.67893C11.052 3.29438 10.8254 2.95541 10.5864 2.66623C11.4195 2.95074 12.1742 3.40592 12.8088 3.98969C12.4469 4.18359 12.0567 4.35199 11.6464 4.49273C11.53 4.20996 11.4013 3.93793 11.2607 3.67893ZM5.86439 3.67893C5.72377 3.93793 5.59508 4.20996 5.47865 4.49273C5.06828 4.35199 4.6782 4.18349 4.31622 3.98969C4.95087 3.40592 5.70554 2.95074 6.53865 2.66623C6.29973 2.95541 6.07316 3.29427 5.86439 3.67893ZM5.19675 5.27593C4.91235 6.18576 4.74514 7.17763 4.70912 8.19249H2.29896C2.38815 6.83822 2.90823 5.59972 3.72377 4.61382C4.17635 4.87337 4.67201 5.09538 5.19675 5.27593ZM4.70912 9.02582C4.74514 10.0408 4.91235 11.0325 5.19675 11.9424C4.67201 12.1229 4.17635 12.345 3.72377 12.6045C2.90823 11.6186 2.38815 10.3801 2.29896 9.02582H4.70912ZM5.47865 12.7256C5.59508 13.0084 5.72377 13.2804 5.86439 13.5394C6.07316 13.9239 6.29973 14.2629 6.53865 14.5521C5.70554 14.2676 4.95087 13.8124 4.31632 13.2286C4.67808 13.0348 5.06828 12.8663 5.47865 12.7256ZM11.2607 13.5394C11.4013 13.2804 11.53 13.0084 11.6464 12.7256C12.0567 12.8663 12.4469 13.0348 12.8088 13.2286C12.1742 13.8124 11.4195 14.2676 10.5864 14.5521C10.8254 14.2629 11.0519 13.924 11.2607 13.5394ZM11.9283 11.9424C12.2127 11.0325 12.3799 10.0407 12.4159 9.02582H14.8261C14.7369 10.3801 14.2168 11.6186 13.4013 12.6045C12.9487 12.345 12.453 12.1229 11.9283 11.9424ZM12.4159 8.19249C12.3799 7.17751 12.2127 6.18576 11.9283 5.27593C12.453 5.09538 12.9487 4.87337 13.4013 4.61382C14.2168 5.59972 14.7369 6.83822 14.8261 8.19249H12.4159Z" fill="#74767E"/>
</g>
<defs>
<clipPath id="clip0_1_5356">
<rect width="16" height="16" fill="white" transform="translate(0.5625 0.609375)"/>
</clipPath>
</defs>
</svg>
