<svg width="90" height="28" viewBox="0 0 90 28" fill="none" xmlns="http://www.w3.org/2000/svg">
<g clip-path="url(#clip0_1_3892)">
<path d="M82.1 13.6H79C77 13.6 75.9 15.1 75.9 17.7V27H69.9V13.6H67.4C65.4 13.6 64.3 15.1 64.3 17.7V27H58.3V8.6H64.3V11.4C65.3 9.2 66.6 8.6 68.6 8.6H75.9V11.4C76.9 9.2 78.2 8.6 80.2 8.6H82.2L82.1 13.6ZM56.9 19.2H44.5C44.8 21.3 46.1 22.4 48.2 22.4C49.8 22.4 50.9 21.7 51.3 20.6L56.6 22.1C55.3 25.3 52.1 27.2 48.2 27.2C41.7 27.2 38.7 22.1 38.7 17.7C38.7 13.4 41.3 8.3 47.8 8.3C54.7 8.3 57 13.5 57 17.4C57 18.3 57 18.8 56.9 19.2ZM51.2 15.7C51.1 14.1 49.9 12.7 47.9 12.7C46 12.7 44.9 13.5 44.5 15.7H51.2ZM28.3 27H33.5L40.1 8.7H34.1L30.9 19.4L27.7 8.6H21.7L28.3 27ZM3.9 27H9.8V13.6H15.5V27H21.4V8.6H9.8V7.5C9.8 6.3 10.7 5.5 12 5.5H15.5V0.5H11.1C6.8 0.5 3.9 3.2 3.9 7.1V8.6H0.5V13.6H3.9V27Z" fill="#404145"/>
<path d="M85.8001 27.5001C87.8001 27.5001 89.5001 25.8001 89.5001 23.8001C89.5001 21.8001 87.8001 20.1001 85.8001 20.1001C83.8001 20.1001 82.1001 21.8001 82.1001 23.8001C82.1001 25.8001 83.8001 27.5001 85.8001 27.5001Z" fill="#1DBF73"/>
</g>
<defs>
<clipPath id="clip0_1_3892">
<rect width="89" height="27" fill="white" transform="translate(0.5 0.5)"/>
</clipPath>
</defs>
</svg>
