<svg width="20" height="19" viewBox="0 0 20 19" fill="none" xmlns="http://www.w3.org/2000/svg">
<g clip-path="url(#clip0_1_3907)">
<g clip-path="url(#clip1_1_3907)">
<path d="M7.52837 17.4169H11.8466M3.89678 10.2513L2.54778 11.6012C2.30143 11.8474 2.10599 12.1396 1.97263 12.4613C1.83926 12.7831 1.77058 13.1279 1.77051 13.4761C1.77051 14.0617 2.24551 14.5367 2.83192 14.5367H16.5439C17.1294 14.5367 17.6044 14.0617 17.6044 13.4761C17.6043 13.1279 17.5357 12.7831 17.4023 12.4613C17.2689 12.1396 17.0735 11.8474 16.8271 11.6012L15.4781 10.2513C15.2394 10.0128 15.05 9.72948 14.9208 9.4177C14.7916 9.10592 14.7251 8.77173 14.7251 8.43424V6.6206C14.7251 5.95905 14.5948 5.30398 14.3416 4.6928C14.0884 4.08161 13.7174 3.52627 13.2496 3.05848C12.7818 2.5907 12.2265 2.21963 11.6153 1.96647C11.0041 1.71331 10.349 1.58301 9.68746 1.58301C9.02584 1.58301 8.3707 1.71334 7.75946 1.96655C7.14821 2.21977 6.59284 2.59091 6.12504 3.05879C5.65725 3.52666 5.2862 4.08211 5.03309 4.69339C4.77998 5.30468 4.64976 5.95984 4.64987 6.62146V8.4351C4.64987 9.11737 4.37869 9.77028 3.89678 10.2522V10.2513Z" stroke="#74767E" stroke-width="1.72727" stroke-linecap="round" stroke-linejoin="round"/>
</g>
</g>
<defs>
<clipPath id="clip0_1_3907">
<rect width="19" height="19" fill="white" transform="translate(0.1875)"/>
</clipPath>
<clipPath id="clip1_1_3907">
<rect width="19" height="19" fill="white" transform="translate(0.1875)"/>
</clipPath>
</defs>
</svg>
