<svg width="13" height="13" viewBox="0 0 13 13" fill="none" xmlns="http://www.w3.org/2000/svg">
<g clip-path="url(#clip0_1_8230)">
<path fill-rule="evenodd" clip-rule="evenodd" d="M6.0625 12.7812C7.6538 12.7812 9.17992 12.1491 10.3051 11.0239C11.4304 9.89867 12.0625 8.37255 12.0625 6.78125C12.0625 5.18995 11.4304 3.66383 10.3051 2.53861C9.17992 1.41339 7.6538 0.78125 6.0625 0.78125C4.4712 0.78125 2.94508 1.41339 1.81986 2.53861C0.694641 3.66383 0.0625 5.18995 0.0625 6.78125C0.0625 8.37255 0.694641 9.89867 1.81986 11.0239C2.94508 12.1491 4.4712 12.7812 6.0625 12.7812ZM5.06275 5.44775C5.06275 5.27675 5.119 5.00525 5.2705 4.79525C5.3965 4.62125 5.6125 4.44875 6.0625 4.44875C6.613 4.44875 6.8995 4.73975 6.99625 5.0315C7.09825 5.339 7.01125 5.68175 6.6925 5.894C6.16675 6.245 5.779 6.584 5.575 7.061C5.395 7.481 5.395 7.94225 5.39575 8.375V8.4485H6.73C6.73 7.9025 6.74125 7.7255 6.80125 7.586C6.84625 7.4795 6.95875 7.319 7.43275 7.00325C7.81722 6.75334 8.10748 6.38247 8.2577 5.94922C8.40791 5.51596 8.40951 5.04502 8.26225 4.61075C7.981 3.76475 7.1785 3.1145 6.0625 3.1145C5.17825 3.1145 4.56175 3.49775 4.1875 4.01675C3.89322 4.43627 3.7334 4.93533 3.72925 5.44775H5.06275ZM6.72925 10.448V9.11375H5.395V10.4472H6.73L6.72925 10.448Z" fill="#B5B6BA"/>
</g>
<defs>
<clipPath id="clip0_1_8230">
<rect width="12" height="12" fill="white" transform="translate(0.0625 0.78125)"/>
</clipPath>
</defs>
</svg>
