<svg width="16" height="16" viewBox="0 0 16 16" fill="none" xmlns="http://www.w3.org/2000/svg">
<g clip-path="url(#clip0_1_4272)">
<path d="M14.9642 5.60323C14.9642 5.726 14.8917 5.85993 14.7466 6.00502L11.7081 8.96819L12.4279 13.1535C12.4335 13.1925 12.4363 13.2483 12.4363 13.3209C12.4363 13.4381 12.407 13.5371 12.3484 13.618C12.2898 13.6989 12.2047 13.7394 12.0931 13.7394C11.9871 13.7394 11.8755 13.7059 11.7583 13.6389L7.99993 11.6635L4.24156 13.6389C4.11879 13.7059 4.00718 13.7394 3.90674 13.7394C3.78955 13.7394 3.70166 13.6989 3.64307 13.618C3.58447 13.5371 3.55518 13.4381 3.55518 13.3209C3.55518 13.2874 3.56076 13.2316 3.57192 13.1535L4.29178 8.96819L1.24491 6.00502C1.1054 5.85435 1.03564 5.72042 1.03564 5.60323C1.03564 5.39676 1.19189 5.26841 1.50439 5.21819L5.7064 4.60714L7.58977 0.798545C7.6958 0.56975 7.83252 0.455353 7.99993 0.455353C8.16734 0.455353 8.30406 0.56975 8.41009 0.798545L10.2935 4.60714L14.4955 5.21819C14.808 5.26841 14.9642 5.39676 14.9642 5.60323Z" fill="#FFBE5B"/>
</g>
<defs>
<clipPath id="clip0_1_4272">
<rect width="15" height="15" fill="white" transform="translate(0.5 0.1875)"/>
</clipPath>
</defs>
</svg>
