<svg width="16" height="16" viewBox="0 0 16 16" fill="none" xmlns="http://www.w3.org/2000/svg">
<g clip-path="url(#clip0_1_4714)">
<path fill-rule="evenodd" clip-rule="evenodd" d="M11.1927 9.00898L13.5099 6.79371L10.3002 6.33294L9.70505 6.24433L9.43457 5.71266L8.001 2.8594V11.3926L8.53296 11.6673L11.4001 13.156L10.8591 10.0103L10.7509 9.42545L11.1927 9.00898ZM15.268 6.68738L11.9952 9.8242L12.7706 14.2548C12.8337 14.6447 12.6894 14.875 12.4099 14.875C12.3107 14.875 12.1845 14.8396 12.0492 14.7687L8.001 12.6775L3.95277 14.7687C3.81752 14.8396 3.6913 14.875 3.59212 14.875C3.31262 14.875 3.16836 14.6447 3.23147 14.2548L4.00686 9.8242L0.724989 6.68738C0.337295 6.30635 0.463521 5.93419 1.00449 5.85444L5.53059 5.20758L7.55922 1.1758C7.67642 0.936555 7.83871 0.8125 8.001 0.8125C8.16329 0.8125 8.31657 0.936555 8.44279 1.1758L10.4714 5.20758L14.9975 5.85444C15.5385 5.93419 15.6647 6.30635 15.268 6.68738Z" fill="#FFB33E"/>
</g>
<defs>
<clipPath id="clip0_1_4714">
<rect width="15" height="15" fill="white" transform="translate(0.5 0.34375)"/>
</clipPath>
</defs>
</svg>
