<svg width="17" height="17" viewBox="0 0 17 17" fill="none" xmlns="http://www.w3.org/2000/svg">
<g clip-path="url(#clip0_1_4865)">
<path d="M1.5 0.500049C0.946875 0.500049 0.5 0.946925 0.5 1.50005V16C0.5 16.275 0.725 16.5 1 16.5H2C2.275 16.5 2.5 16.275 2.5 16V1.50005C2.5 0.946925 2.05313 0.500049 1.5 0.500049ZM14.9563 0.6313C9.60312 3.35943 10.0437 -1.4437 3.5 1.51255V12.5C9.30313 9.6188 10.4281 14.1656 15.9219 11.7781C16.2781 11.6219 16.5 11.2625 16.5 10.8781V1.46255C16.5 0.678174 15.6625 0.271925 14.9563 0.6313Z" fill="#74767E"/>
</g>
<defs>
<clipPath id="clip0_1_4865">
<rect width="16" height="16" fill="white" transform="translate(0.5 0.5)"/>
</clipPath>
</defs>
</svg>
