<svg width="17" height="17" viewBox="0 0 17 17" fill="none" xmlns="http://www.w3.org/2000/svg">
<g clip-path="url(#clip0_1_4869)">
<path d="M12.5 10.5C11.7935 10.5 11.1442 10.7443 10.6316 11.153L7.42887 9.15128C7.52372 8.72226 7.52372 8.27771 7.42887 7.84869L10.6316 5.847C11.1442 6.25566 11.7935 6.5 12.5 6.5C14.1568 6.5 15.5 5.15684 15.5 3.5C15.5 1.84316 14.1568 0.5 12.5 0.5C10.8432 0.5 9.5 1.84316 9.5 3.5C9.5 3.72369 9.52469 3.94156 9.57113 4.15128L6.36844 6.15297C5.85584 5.74434 5.2065 5.5 4.5 5.5C2.84316 5.5 1.5 6.84316 1.5 8.5C1.5 10.1568 2.84316 11.5 4.5 11.5C5.2065 11.5 5.85584 11.2557 6.36844 10.847L9.57113 12.8487C9.52379 13.0626 9.49994 13.281 9.5 13.5C9.5 15.1568 10.8432 16.5 12.5 16.5C14.1568 16.5 15.5 15.1568 15.5 13.5C15.5 11.8432 14.1568 10.5 12.5 10.5Z" fill="#1DBF73"/>
</g>
<defs>
<clipPath id="clip0_1_4869">
<rect width="16" height="16" fill="white" transform="translate(0.5 0.5)"/>
</clipPath>
</defs>
</svg>
