<svg width="19" height="18" viewBox="0 0 19 18" fill="none" xmlns="http://www.w3.org/2000/svg">
<g clip-path="url(#clip0_1_3911)">
<g clip-path="url(#clip1_1_3911)">
<path d="M0.937256 9.75049V14.2505C0.937494 14.6482 1.09567 15.0296 1.377 15.3108C1.65834 15.5919 2.03981 15.7499 2.43756 15.7499H15.9376C16.1345 15.75 16.3296 15.7113 16.5116 15.636C16.6936 15.5607 16.859 15.4503 16.9984 15.311C17.1377 15.1718 17.2482 15.0065 17.3236 14.8245C17.399 14.6425 17.4379 14.4475 17.4379 14.2505V9.75049" stroke="#74767E" stroke-width="1.8" stroke-miterlimit="10" stroke-linecap="square"/>
<path d="M17.4379 6.0003V3.7503C17.4379 3.3524 17.2798 2.97079 16.9984 2.68943C16.7171 2.40807 16.3355 2.25 15.9376 2.25H2.43756C2.03965 2.25 1.65804 2.40807 1.37668 2.68943C1.09532 2.97079 0.937256 3.3524 0.937256 3.7503V6.0003L9.18756 10.5003L17.4379 6.0003Z" stroke="#74767E" stroke-width="1.8" stroke-miterlimit="10" stroke-linecap="square"/>
</g>
</g>
<defs>
<clipPath id="clip0_1_3911">
<rect width="18" height="18" fill="white" transform="translate(0.1875)"/>
</clipPath>
<clipPath id="clip1_1_3911">
<rect width="18" height="16.2" fill="white" transform="translate(0.1875 0.899902)"/>
</clipPath>
</defs>
</svg>
