<svg width="29" height="29" viewBox="0 0 29 29" fill="none" xmlns="http://www.w3.org/2000/svg">
<path d="M14.3334 2.88782C12.0836 2.88782 9.88437 3.55495 8.01376 4.80485C6.14315 6.05475 4.68519 7.83128 3.82424 9.90979C2.9633 11.9883 2.73803 14.2754 3.17694 16.482C3.61585 18.6885 4.69921 20.7153 6.29003 22.3062C7.88086 23.897 9.90769 24.9803 12.1142 25.4192C14.3208 25.8582 16.6079 25.6329 18.6864 24.7719C20.7649 23.911 22.5414 22.453 23.7913 20.5824C25.0412 18.7118 25.7084 16.5126 25.7084 14.2628C25.7052 11.247 24.5057 8.35553 22.3732 6.223C20.2407 4.09046 17.3492 2.891 14.3334 2.88782ZM13.8959 8.13782C14.1555 8.13782 14.4092 8.21479 14.6251 8.35901C14.8409 8.50323 15.0091 8.70822 15.1085 8.94805C15.2078 9.18787 15.2338 9.45177 15.1832 9.70637C15.1325 9.96097 15.0075 10.1948 14.824 10.3784C14.6404 10.562 14.4065 10.687 14.1519 10.7376C13.8973 10.7882 13.6334 10.7622 13.3936 10.6629C13.1538 10.5636 12.9488 10.3953 12.8046 10.1795C12.6604 9.96366 12.5834 9.70991 12.5834 9.45032C12.5834 9.10222 12.7217 8.76838 12.9678 8.52224C13.2139 8.2761 13.5478 8.13782 13.8959 8.13782ZM15.2084 20.3878C14.7442 20.3878 14.2991 20.2034 13.9709 19.8753C13.6427 19.5471 13.4584 19.1019 13.4584 18.6378V14.2628C13.2263 14.2628 13.0038 14.1706 12.8397 14.0065C12.6756 13.8424 12.5834 13.6199 12.5834 13.3878C12.5834 13.1558 12.6756 12.9332 12.8397 12.7691C13.0038 12.605 13.2263 12.5128 13.4584 12.5128C13.9225 12.5128 14.3676 12.6972 14.6958 13.0254C15.024 13.3536 15.2084 13.7987 15.2084 14.2628V18.6378C15.4404 18.6378 15.663 18.73 15.8271 18.8941C15.9912 19.0582 16.0834 19.2808 16.0834 19.5128C16.0834 19.7449 15.9912 19.9674 15.8271 20.1315C15.663 20.2956 15.4404 20.3878 15.2084 20.3878Z" fill="#1DBF73"/>
</svg>
