<svg width="21" height="21" viewBox="0 0 21 21" fill="none" xmlns="http://www.w3.org/2000/svg">
<path d="M16.762 3.12L3.90482 3.12C3.3365 3.12 2.79145 3.34576 2.38959 3.74762C1.98773 4.14949 1.76196 4.69453 1.76196 5.26285L1.76196 15.2629C1.76196 15.8312 1.98773 16.3762 2.38959 16.7781C2.79145 17.1799 3.3365 17.4057 3.90482 17.4057L16.762 17.4057C17.3303 17.4057 17.8753 17.1799 18.2772 16.7781C18.6791 16.3762 18.9048 15.8312 18.9048 15.2629L18.9048 5.26285C18.9048 4.69453 18.6791 4.14949 18.2772 3.74762C17.8753 3.34576 17.3303 3.12 16.762 3.12ZM16.5477 6.54857L10.8334 11.5486C10.6778 11.6288 10.5079 11.6773 10.3334 11.6914C10.1589 11.6773 9.98898 11.6288 9.83339 11.5486L4.11911 6.54857C3.97703 6.42543 3.88968 6.2509 3.87628 6.06336C3.86289 5.87582 3.92454 5.69065 4.04768 5.54857C4.17081 5.40649 4.34535 5.31914 4.53288 5.30575C4.72042 5.29235 4.9056 5.354 5.04768 5.47714L10.262 10.0486L15.4762 5.47714C15.5457 5.4143 15.6272 5.36617 15.7157 5.33564C15.8043 5.30511 15.8981 5.29281 15.9915 5.29948C16.0849 5.30616 16.176 5.33166 16.2593 5.37447C16.3426 5.41728 16.4164 5.4765 16.4762 5.54857C16.5554 5.60331 16.6212 5.67511 16.6689 5.75869C16.7166 5.84226 16.7449 5.93547 16.7517 6.03144C16.7586 6.12741 16.7438 6.2237 16.7085 6.3132C16.6732 6.4027 16.6182 6.48314 16.5477 6.54857Z" fill="#9095A1"/>
</svg>
