<svg width="21" height="21" viewBox="0 0 21 21" fill="none" xmlns="http://www.w3.org/2000/svg">
<path d="M17.4059 14.5461L14.0184 11.4661C13.6859 11.1636 13.1725 11.1795 12.8592 11.502L10.865 13.5528C10.385 13.4611 9.42003 13.1603 8.4267 12.1695C7.43336 11.1753 7.13253 10.2078 7.04337 9.73113L9.09253 7.73613C9.41586 7.4228 9.43086 6.9103 9.12836 6.57696L6.0492 3.1903C5.7467 2.85613 5.23253 2.82446 4.89003 3.1178L3.0817 4.66863C2.93753 4.81363 2.8517 5.0053 2.84003 5.20946C2.82753 5.4178 2.5892 10.3528 6.41586 14.1811C9.7542 17.5186 13.9359 17.7628 15.0875 17.7628C15.2559 17.7628 15.3592 17.7578 15.3867 17.7561C15.5909 17.7445 15.7825 17.6586 15.9267 17.5136L17.4767 15.7045C17.7717 15.362 17.7392 14.8486 17.4059 14.5461Z" fill="#9095A1"/>
</svg>
