<svg width="29" height="29" viewBox="0 0 29 29" fill="none" xmlns="http://www.w3.org/2000/svg">
<path d="M14.3334 25.2628C15.4379 25.2628 16.3334 24.3674 16.3334 23.2628C16.3334 22.1582 15.4379 21.2628 14.3334 21.2628C13.2288 21.2628 12.3334 22.1582 12.3334 23.2628C12.3334 24.3674 13.2288 25.2628 14.3334 25.2628Z" fill="#BDC1CA"/>
<path d="M14.3334 19.2628C13.5054 19.2628 12.8334 18.5908 12.8334 17.7628V17.2628C12.8334 15.0298 14.2604 13.6478 16.2764 11.9388C16.8944 11.4158 18.8244 9.56479 17.7054 7.75179C16.9744 6.56879 14.2254 6.41279 11.9394 7.42479C11.1794 7.75879 10.2954 7.41579 9.96038 6.65879C9.62538 5.90079 9.96838 5.01479 10.7264 4.67979C14.0504 3.21279 18.5224 3.36779 20.2574 6.17379C21.8374 8.73479 21.0554 11.8198 18.2154 14.2268C16.1764 15.9548 15.8324 16.5588 15.8324 17.2618V17.7618C15.8324 18.5898 15.1604 19.2618 14.3324 19.2618L14.3334 19.2628Z" fill="#BDC1CA"/>
</svg>
